<svg xmlns="http://www.w3.org/2000/svg" xmlns:svgjs="http://svgjs.com/svgjs" xmlns:xlink="http://www.w3.org/1999/xlink" width="288" height="288"><svg xmlns="http://www.w3.org/2000/svg" width="288" height="288" version="1.0" viewBox="0 0 2134 2134"><g fill="#fff" class="color000 svgShape" transform="matrix(.1 0 0 -.1 0 2134)"><path d="M6955 16185 c-2268 -920 -3040 -1237 -3039 -1248 1 -9 372 -929 824-2046 l823 -2031 79 0 c43 0 78 3 78 8 0 4 -364 905 -809 2002 l-809 1995 27
11 c14 7 1322 537 2906 1179 1584 642 2885 1169 2890 1171 8 3 565 -1352 582
-1415 5 -21 166 46 -1507 -631 -696 -282 -1292 -526 -1325 -542 -169 -85 -356
-245 -464 -398 -45 -63 -127 -216 -166 -310 -8 -19 -56 -42 -255 -122 -1466
-593 -1362 -549 -1355 -577 4 -14 9 -29 13 -33 4 -4 356 135 782 307 426 173
776 313 777 311 1 -1 -4 -36 -12 -77 -49 -243 -22 -505 77 -752 22 -54 38
-100 36 -103 -3 -2 -294 -121 -649 -265 -354 -143 -649 -263 -656 -266 -14 -6
3 -63 20 -63 5 0 299 117 651 259 353 143 647 261 654 263 15 3 355 -822 344
-834 -4 -3 -299 -124 -657 -269 -357 -144 -652 -264 -654 -265 -4 -4 19 -64
25 -64 2 0 298 119 658 265 360 146 656 265 659 265 3 0 21 -39 40 -87 20 -49
96 -237 170 -419 l134 -331 -651 -263 c-358 -145 -655 -267 -660 -271 -6 -6
-4 -20 5 -37 l14 -29 649 263 c358 145 655 264 661 264 7 0 25 -31 40 -70 l28
-70 74 0 c44 0 73 4 73 11 0 5 -173 436 -384 957 -526 1297 -522 1288 -545
1372 -30 109 -44 251 -37 354 11 144 57 333 83 343 7 3 13 16 13 29 0 14 15
55 34 92 96 189 275 373 464 474 108 59 3295 1347 3402 1375 129 34 336 43
465 18 111 -20 243 -63 332 -109 204 -103 393 -291 495 -491 17 -33 428 -1041
914 -2240 l883 -2180 77 -3 c70 -3 76 -1 72 15 -14 49 -1786 4408 -1818 4473
-163 323 -472 565 -840 658 -98 25 -120 27 -310 26 -190 0 -212 -2 -304 -27
-55 -15 -172 -56 -260 -92 -88 -35 -160 -64 -161 -62 -1 1 -144 353 -318 782
-184 456 -321 781 -329 782 -7 1 -1381 -554 -3053 -1232z" class="color000 svgShape"/><path d="M7355 15091c-2187-886-2290-929-2287-952 1-13 7-28 12-33 8-8 4573 1834 4593 1853 9 9-8 61-20 61-5 0-1038-418-2298-929zM7750 14021c-92-29-169-94-209-180-34-75-36-192-4-263 30-66 104-141 166-169 79-36 202-34 279 4 62 30 115 83 150 149 20 37 23 58 23 143 0 92-2 104-30 154-59 108-168 172-288 170-34 0-73-4-87-8zM1352 10601c-129-32-234-92-332-190-134-134-190-261-190-436 0-246 134-436 400-565 47-22 150-61 230-86 288-91 380-162 380-290 0-169-192-273-425-231-113 21-225 67-334 137-52 34-98 57-102 53-14-14-219-364-219-374 0-14 145-108 249-159 179-90 351-126 559-117 145 6 214 23 327 77 352 170 503 586 333 913-66 127-188 236-357 322-30 15-128 51-219 81-304 100-393 171-361 288 23 82 117 144 235 154 85 6 193-20 303-73l90-44 121 174c66 96 120 178 120 184 0 13-141 94-230 132-161 68-414 90-578 50zM8322 10600c-274-72-462-292-462-542 0-172 67-311 204-426 74-63 249-144 411-192 342-100 508-237 523-431 16-221-177-414-444-444-149-16-424 56-574 150-23 14-43 25-45 23-12-13-105-175-105-184 0-15 131-88 234-129 159-64 239-79 431-80 151 0 178 3 245 23 126 40 207 88 295 177 130 129 188 265 188 440 1 246-152 451-428 575-35 16-144 54-242 85-201 65-287 104-355 164-135 120-150 329-32 460 52 58 154 113 241 132 140 29 336-7 505-92l76-38 15 22c8 12 33 52 55 89l41 67-100 51c-182 94-289 120-477 119-91 0-147-5-200-19zM2590 9480l0-1090 725 0 725 0 0 225 0 225-495 0-495 0 0 865 0 865-230 0-230 0 0-1090zM4380 9480l0-1090 220 0 220 0 0 1090 0 1090-220 0-220 0 0-1090zM5160 9481l0-1091 220 0 220 0 0 235 0 235 220 0c296 0 384 18 551 116 88 52 223 190 281 289 257 437 96 1003-349 1225-150 74-143 73-670 77l-473 4 0-1090zm938 615c81-38 171-131 203-213 20-48 23-76 23-168 0-92-3-120-23-168-32-82-122-175-203-213-62-29-65-29-280-32l-218-4 0 417 0 417 218-4c215-3 218-3 280-32zM9520 9480l0-1090 105 0 105 0 2 914 3 914 685-914 684-914 108 0 108 0 0 1090 0 1090-105 0-105 0-2-912-3-912-685 912-685 911-107 1-108 0 0-1090zM12053 9498c-215-590-395-1081-398-1091-7-16 1-17 105-15l113 3 106 292 106 293 489-3 488-2 106-292 106-293 109 0c108 0 109 0 103 23-3 12-180 501-394 1087l-388 1065-130 3-130 3-391-1073zm736 224c105-288 191-526 191-528 0-2-184-4-409-4l-409 0 189 518c104 284 196 537 206 562l16 44 13-34c6-19 98-271 203-558zM13740 9481l0-1091 105 0 105 0 0 294 0 294 303 4c269 5 311 7 382 27 294 79 513 292 586 568 27 103 29 288 4 388-56 226-213 416-428 519-164 79-168 79-639 84l-418 3 0-1090zm740 879c153-17 274-70 375-162 187-171 236-448 120-684-64-130-190-235-346-290l-84-28-297-4-298-4 0 591 0 591 223 0c122 0 260-5 307-10zM15540 9481l0-1091 100 0 100 0 0 295 0 295 248 0c286 0 383 10 506 51 131 44 217 98 321 203 68 68 101 111 132 171 155 300 110 655-114 905-85 95-240 188-385 232-69 21-95 22-490 26l-418 3 0-1090zm843 860c109-29 190-74 275-155 116-110 172-245 172-414 0-156-54-286-165-397-76-76-149-120-260-156-65-21-90-23-367-27l-298-4 0 585c0 321 3 587 8 591 4 5 131 6 282 3 238-4 286-7 353-26zM17330 9480l0-1090 690 0 690 0 0 105 0 105-585 0-585 0 0 390 0 390 570 0 570 0 0 100 0 100-570 0-570 0 0 395 0 395 585 0 585 0 0 100 0 100-690 0-690 0 0-1090zM19050 9481l0-1091 100 0 100 0 0 295 0 295 164 0 164 0 362-295 362-295 151 0c126 0 149 2 137 13-8 8-51 43-95 78-44 36-203 166-354 289l-274 223 69 17c354 86 593 369 611 725 20 386-210 696-602 811-52 15-116 18-477 21l-418 4 0-1090zm731 879c169-19 294-77 399-183 104-104 160-244 160-399 0-163-52-291-165-404-55-55-92-82-156-112-130-63-195-72-504-72l-265 0 0 583c0 321 3 587 7 590 10 11 428 8 524-3zM6640 8206c0-7 1140-2820 1145-2824 2-3 456 178 1007 401 552 224 1009 408 1017 409 9 2 46-77 115-247 57-137 113-270 125-295 76-148 213-315 346-420 314-249 747-339 1131-236 106 29 3267 1307 3398 1374 233 120 416 304 540 543 111 213 152 398 143 643-7 190-27 278-110 489l-64 162-77 3c-42 2-76-1-76-6 0-5 21-58 46-118 71-171 113-299 129-398 38-233 0-474-108-691-105-211-279-391-478-495-110-57-3289-1343-3384-1368-389-104-806 9-1096 298-86 85-185 222-224 309-11 25-241 590-510 1255l-491 1211-77 3c-42 2-77 1-77-2 0-2 169-422 376-932 315-776 374-930 361-938-35-22-1873-763-1879-757-3 3-223 542-488 1196-265 655-504 1245-532 1313l-50 122-79 0c-43 0-79-2-79-4z" class="color000 svgShape"/></g></svg></svg>